<?xml version="1.0" encoding="UTF-8"?><svg xmlns="http://www.w3.org/2000/svg" xmlns:xlink="http://www.w3.org/1999/xlink" height="32.0" preserveAspectRatio="xMidYMid meet" version="1.0" viewBox="-0.0 0.0 32.0 32.0" width="32.0" zoomAndPan="magnify">
 <linearGradient gradientUnits="userSpaceOnUse" id="A" x1="-438.98" x2="-438.98" xlink:actuate="onLoad" xlink:show="other" xlink:type="simple" xmlns:xlink="http://www.w3.org/1999/xlink" y1="-277.67" y2="-273.25">
  <stop offset="0" stop-color="#6ebf61"/>
  <stop offset=".231" stop-color="#50a557"/>
  <stop offset=".522" stop-color="#2a904f"/>
  <stop offset=".812" stop-color="#50a557"/>
  <stop offset="1" stop-color="#6ebf63"/>
 </linearGradient>
 <g id="change1_1"><path d="m16 31.99a15.97 15.97 0 0 1 -8.799 -2.641l-6.148 1.964 1.993-5.94a15.87 15.87 0 0 1 -3.046 -9.373c0-8.818 7.173-15.99 15.99-15.99s15.99 7.172 15.99 15.99-7.17 15.99-15.99 15.99h0.01z" fill="#fefefe"/></g>
 <path d="m74.34-75.742c-33.236 0-60.27 27.035-60.27 60.27 0 13.18 4.252 25.405 11.48 35.327l-7.513 22.395 23.163-7.405c9.53 6.307 20.905 9.956 33.165 9.956 33.236 0 60.27-27.036 60.27-60.27s-27.035-60.27-60.27-60.27h-0.035z" fill="url(#A)" transform="matrix(.26531 0 0 .26531 -3.7234 20.105)"/>
 <g id="change1_2"><path d="m11.535 8.132c-0.3-0.743-0.545-0.77-1.015-0.8l-0.536-0.02c-0.61 0-1.25 0.18-1.636 0.573-0.47 0.48-1.636 1.598-1.636 3.892s1.673 4.512 1.9 4.823c0.235 0.3 3.262 5.086 7.963 7.032 3.676 1.523 4.766 1.382 5.603 1.203 1.222-0.263 2.754-1.166 3.14-2.256s0.386-2.02 0.272-2.22-0.423-0.3-0.893-0.545-2.754-1.363-3.187-1.514c-0.423-0.16-0.827-0.103-1.147 0.348-0.45 0.63-0.893 1.27-1.25 1.654-0.282 0.3-0.743 0.34-1.128 0.18-0.517-0.216-1.965-0.724-3.75-2.313-1.382-1.23-2.322-2.764-2.595-3.224-0.273-0.47-0.028-0.743 0.188-0.997 0.235-0.292 0.46-0.498 0.696-0.77s0.367-0.414 0.517-0.733c0.16-0.3 0.047-0.63-0.066-0.865s-1.053-2.53-1.438-3.46z" fill="#fefefe"/></g>
</svg>