<?xml version="1.0" encoding="UTF-8"?><svg xmlns="http://www.w3.org/2000/svg" xmlns:xlink="http://www.w3.org/1999/xlink" height="128.0" preserveAspectRatio="xMidYMid meet" version="1.0" viewBox="0.0 -0.0 128.0 128.0" width="128.0" zoomAndPan="magnify"><g id="change1_1"><path d="m127 95.446c0 17.37-14.186 31.554-31.551 31.554h-62.894c-17.371 0-31.555-14.184-31.555-31.554v-62.893c0-17.367 14.184-31.553 31.555-31.553h62.895c17.364 0 31.55 14.186 31.55 31.553z" fill="#0074b5"/></g><g fill="#fff" id="change2_1"><path d="m25 51h18v52h-18z" fill="inherit"/><path d="m33.863 43.035c5.059 0 9.174-4.109 9.174-9.171 0-5.066-4.115-9.173-9.174-9.173-5.07 0-9.172 4.106-9.172 9.173 0 5.062 4.102 9.171 9.172 9.171" fill="inherit"/><path d="m103 74.506c0-14.146-2.896-23.596-19.382-23.596-7.924 0-13.085 3.09-15.263 7.09h-.355v-7h-14v52h15v-25.67c0-6.85 1.397-13.483 9.874-13.483 8.346 0 9.126 7.832 9.126 13.922v25.231h15z" fill="inherit"/></g><g fill="none" stroke="#333" stroke-linecap="round" stroke-linejoin="round" stroke-miterlimit="10" stroke-width="2"><path d="m95.441 1h-62.894c-17.365 0-31.547 14.183-31.547 31.553v62.893c0 17.366 14.182 31.554 31.547 31.554h62.895c17.37 0 31.558-14.188 31.558-31.554v-62.893c0-17.37-14.188-31.553-31.559-31.553z"/><path d="m93 7h-58.23c-15.153 0-27.77 12.616-27.77 27.769v58.46c0 15.153 12.617 27.771 27.77 27.771h58.46c15.152 0 27.77-12.618 27.77-27.771v-28.229"/><path d="m93 7c7.576 0 14.666 3.402 19.631 8.368"/><path d="m121 58v-15"/><path d="m43 103h-18v-52h18zm.037-69.136c0 5.062-4.115 9.171-9.174 9.171-5.07 0-9.172-4.109-9.172-9.171 0-5.066 4.102-9.172 9.172-9.172m69.137 50.308v28h-15v-25.231c0-6.09-.78-13.922-9.126-13.922-8.477 0-9.874 6.633-9.874 13.484v25.669h-15v-52h14v7h.355c2.178-4 7.339-6.842 15.263-6.842"/></g></svg>